<svg width="20" height="18" viewBox="0 0 20 18" fill="none" xmlns="http://www.w3.org/2000/svg">
<path d="M0.485754 15.4773C0.0464488 15.812 -0.0383433 16.4394 0.296365 16.8787C0.631074 17.3181 1.25854 17.4028 1.69784 17.0681L0.485754 15.4773ZM19.2646 3.31571C19.3386 2.7684 18.9548 2.26476 18.4075 2.1908L9.4886 0.985543C8.94129 0.911582 8.43765 1.29531 8.36369 1.84262C8.28973 2.38993 8.67345 2.89357 9.22076 2.96753L17.1487 4.03887L16.0774 11.9668C16.0034 12.5141 16.3871 13.0178 16.9344 13.0917C17.4817 13.1657 17.9854 12.782 18.0593 12.2346L19.2646 3.31571ZM1.69784 17.0681L18.8797 3.97723L17.6676 2.38637L0.485754 15.4773L1.69784 17.0681Z" fill="#888888"/>
</svg>
